<svg width="25" height="24" viewBox="0 0 25 24" fill="none" xmlns="http://www.w3.org/2000/svg">
<g filter="url(#filter0_d_102_457)">
<path d="M10.9918 10.5339H6.72724" stroke="white" stroke-width="1.5" stroke-linecap="round" stroke-linejoin="round"/>
<path d="M12.8939 4.38066H17.1584" stroke="white" stroke-width="1.5" stroke-linecap="round" stroke-linejoin="round"/>
<path fill-rule="evenodd" clip-rule="evenodd" d="M9.90621 4.3463C9.90621 3.52376 9.19001 2.8568 8.30676 2.8568C7.42351 2.8568 6.70732 3.52376 6.70732 4.3463C6.70732 5.16884 7.42351 5.83581 8.30676 5.83581C9.19001 5.83581 9.90621 5.16884 9.90621 4.3463Z" stroke="white" stroke-width="1.5" stroke-linecap="round" stroke-linejoin="round"/>
<path fill-rule="evenodd" clip-rule="evenodd" d="M17.5366 10.5091C17.5366 9.68651 16.8209 9.01955 15.9377 9.01955C15.0539 9.01955 14.3377 9.68651 14.3377 10.5091C14.3377 11.3316 15.0539 11.9986 15.9377 11.9986C16.8209 11.9986 17.5366 11.3316 17.5366 10.5091Z" stroke="white" stroke-width="1.5" stroke-linecap="round" stroke-linejoin="round"/>
</g>
<defs>
<filter id="filter0_d_102_457" x="0" y="0" width="24.2439" height="23.2363" filterUnits="userSpaceOnUse" color-interpolation-filters="sRGB">
<feFlood flood-opacity="0" result="BackgroundImageFix"/>
<feColorMatrix in="SourceAlpha" type="matrix" values="0 0 0 0 0 0 0 0 0 0 0 0 0 0 0 0 0 0 127 0" result="hardAlpha"/>
<feOffset dy="4"/>
<feGaussianBlur stdDeviation="2"/>
<feComposite in2="hardAlpha" operator="out"/>
<feColorMatrix type="matrix" values="0 0 0 0 0 0 0 0 0 0 0 0 0 0 0 0 0 0 0.25 0"/>
<feBlend mode="normal" in2="BackgroundImageFix" result="effect1_dropShadow_102_457"/>
<feBlend mode="normal" in="SourceGraphic" in2="effect1_dropShadow_102_457" result="shape"/>
</filter>
</defs>
</svg>
